<?xml version="1.0" standalone="no"?>
<!DOCTYPE svg PUBLIC "-//W3C//DTD SVG 20010904//EN"
 "http://www.w3.org/TR/2001/REC-SVG-20010904/DTD/svg10.dtd">
<svg version="1.0" xmlns="http://www.w3.org/2000/svg"
 width="80" height="70" viewBox="65 0 400 400"
 preserveAspectRatio="xMidYMid meet">

<g transform="translate(0.000000,407.000000) scale(0.100000,-0.100000)"
fill="#8A2BE2" stroke="none">
<path d="M2406 3951 c-3 -5 -20 -7 -38 -5 -18 2 -52 1 -76 -3 -33 -4 -42 -9
-37 -21 4 -12 3 -12 -8 -3 -17 13 -80 3 -70 -12 3 -6 1 -7 -5 -3 -19 11 -75
-19 -234 -125 -1132 -757 -1436 -965 -1481 -1007 -124 -120 -119 -301 13 -414
l49 -42 -53 -50 c-137 -133 -136 -304 2 -427 l49 -44 -57 -56 c-41 -40 -64
-73 -79 -113 -25 -68 -26 -105 -5 -175 24 -82 102 -152 359 -323 121 -80 465
-311 765 -514 300 -202 577 -382 615 -400 171 -82 417 -86 591 -9 56 25 492
313 1149 760 66 45 209 141 317 214 109 73 209 147 224 164 47 55 74 126 74
192 0 78 -24 129 -94 201 l-55 57 50 49 c132 127 130 302 -6 427 -25 23 -45
43 -45 44 0 2 26 30 59 63 117 121 121 266 9 385 -42 46 -30 37 -1101 757
-439 295 -449 301 -460 295 -4 -3 -6 1 -5 9 2 7 -5 12 -14 12 -10 -1 -16 2
-13 6 3 4 -3 11 -13 15 -9 3 -17 5 -18 3 0 -2 -8 5 -18 15 -10 9 -22 15 -27
12 -5 -4 -9 -2 -9 3 0 13 -136 56 -155 48 -8 -3 -15 -1 -15 5 0 6 -21 9 -52 7
-29 -1 -58 1 -65 5 -6 4 -14 3 -17 -2z m7 -796 c83 -21 148 -57 191 -105 68
-75 82 -140 46 -217 -10 -24 -18 -43 -17 -43 1 0 26 9 56 20 164 63 362 37
500 -65 143 -105 159 -241 44 -375 -44 -51 -78 -76 -366 -270 l-228 -153 -377
253 c-207 140 -472 317 -589 395 -117 77 -212 145 -213 151 0 6 118 90 263
187 253 169 324 207 432 230 49 11 205 6 258 -8z"/>
<path d="M2133 3002 c-54 -19 -384 -231 -380 -244 1 -4 83 -62 181 -128 l179
-121 131 87 c72 49 152 108 177 131 54 50 84 110 75 147 -9 37 -62 94 -110
118 -58 30 -183 35 -253 10z"/>
<path d="M2733 2700 c-68 -14 -158 -62 -313 -165 -80 -53 -150 -102 -157 -108
-10 -9 34 -43 187 -146 122 -82 205 -131 214 -128 26 10 288 188 338 229 62
51 88 95 88 147 0 35 -7 49 -40 85 -70 76 -199 111 -317 86z"/>
</g>
</svg>
