<?xml version="1.0" standalone="no"?>
<!DOCTYPE svg PUBLIC "-//W3C//DTD SVG 20010904//EN"
 "http://www.w3.org/TR/2001/REC-SVG-20010904/DTD/svg10.dtd">
<svg version="1.0" xmlns="http://www.w3.org/2000/svg"
 width="150" height="83" viewBox="0 0 1200.000000 500.000000"
 preserveAspectRatio="xMidYMid meet">

<g transform="translate(0.000000,500.000000) scale(0.100000,-0.100000)"
fill="#C71585" stroke="none">
<path d="M0 2500 l0 -2500 6000 0 6000 0 0 2500 0 2500 -6000 0 -6000 0 0
-2500z m5985 1615 c137 -21 201 -41 302 -91 134 -67 211 -147 259 -269 28 -74
27 -264 -4 -360 -79 -254 -273 -479 -533 -618 -88 -47 -245 -101 -377 -129
-90 -19 -137 -23 -292 -23 -170 0 -190 2 -250 24 -76 28 -151 74 -199 122 -40
41 -74 112 -66 138 11 35 34 31 85 -14 88 -78 182 -108 335 -108 250 1 536 99
743 255 260 196 389 467 304 635 -96 188 -537 223 -969 77 -317 -107 -723
-346 -917 -539 -138 -137 -207 -255 -225 -385 -29 -210 53 -336 389 -600 96
-76 198 -160 226 -188 29 -28 56 -47 60 -42 5 4 97 56 205 114 181 98 202 112
257 175 71 80 174 153 254 181 69 24 95 25 147 4 55 -22 91 -93 91 -179 l0
-60 38 0 c21 0 51 -8 65 -18 34 -22 35 -61 6 -167 -58 -211 -91 -369 -87 -411
3 -27 6 -23 40 43 44 88 81 167 183 398 42 96 88 200 102 230 42 92 65 152 88
230 28 94 43 104 172 104 82 1 95 -1 114 -21 l22 -22 -20 -63 c-40 -121 -46
-174 -32 -257 7 -42 21 -96 32 -120 16 -36 21 -41 32 -30 38 41 245 437 245
470 0 27 32 123 48 141 27 33 167 49 231 27 43 -15 47 -42 19 -125 -19 -56
-23 -89 -22 -179 0 -107 1 -112 41 -197 l42 -88 64 25 c114 43 194 57 327 57
99 1 141 -4 205 -21 168 -47 298 -146 363 -280 35 -71 37 -82 37 -171 0 -86
-3 -100 -27 -142 -51 -86 -164 -163 -212 -145 -26 10 -19 45 12 61 35 18 85
72 106 113 54 108 -34 278 -183 352 -106 53 -171 65 -341 65 -123 1 -168 -3
-218 -18 -34 -10 -65 -22 -67 -26 -3 -4 2 -30 10 -56 43 -141 -7 -267 -147
-370 -64 -47 -200 -104 -248 -104 -137 0 -154 168 -35 351 24 37 71 95 104
128 l61 61 -26 57 c-31 67 -60 152 -69 206 -4 20 -11 37 -16 37 -5 0 -9 -4 -9
-9 0 -12 -118 -222 -178 -315 l-50 -79 20 -56 c81 -229 -21 -405 -288 -497
-31 -11 -82 -18 -137 -18 -82 -1 -90 1 -108 23 -21 26 -25 72 -7 104 11 22
103 140 130 168 24 25 134 163 153 192 18 28 18 28 -23 115 -23 48 -49 116
-58 152 -9 36 -19 68 -23 73 -4 4 -31 -50 -61 -120 -67 -162 -224 -478 -303
-613 -58 -97 -130 -160 -186 -160 -73 0 -116 65 -130 196 l-7 69 -18 -40 c-38
-88 -93 -188 -120 -222 -63 -76 -173 -85 -238 -20 -62 62 -113 196 -124 323
-7 85 8 239 31 315 l13 47 -104 -60 c-57 -33 -104 -62 -104 -64 0 -3 10 -33
22 -67 32 -91 32 -290 0 -400 -73 -255 -271 -450 -527 -516 -60 -16 -233 -13
-291 4 -166 50 -227 300 -123 507 68 135 278 308 547 451 l103 54 -153 108
c-437 309 -557 424 -652 624 -29 61 -31 73 -30 171 0 89 4 116 28 178 115 307
447 619 910 857 141 73 366 167 506 212 229 74 503 100 705 68z"/>
<path d="M5588 2271 c-124 -79 -248 -354 -248 -551 0 -76 13 -144 32 -168 26
-31 77 61 176 323 80 213 114 321 116 375 1 56 -14 61 -76 21z"/>
<path d="M7001 1900 c-43 -55 -88 -142 -98 -191 l-6 -31 30 16 c84 43 133 119
133 206 0 27 -4 50 -10 50 -5 0 -27 -22 -49 -50z"/>
<path d="M4685 1731 c-302 -191 -425 -334 -425 -494 0 -60 2 -68 28 -87 23
-19 36 -21 82 -17 184 16 383 216 421 422 11 61 6 213 -8 226 -5 4 -49 -18
-98 -50z"/>
<path d="M6415 1677 c-27 -32 -66 -77 -85 -100 l-35 -41 46 32 c51 34 91 78
115 124 27 52 10 46 -41 -15z"/>
</g>
</svg>
