<?xml version="1.0" standalone="no"?>
<!DOCTYPE svg PUBLIC "-//W3C//DTD SVG 20010904//EN"
 "http://www.w3.org/TR/2001/REC-SVG-20010904/DTD/svg10.dtd">
<svg version="1.0" xmlns="http://www.w3.org/2000/svg"
 width="100" height="70" viewBox="268 100 900 430"
 preserveAspectRatio="xMidYMid meet">

<g transform="translate(0.000000,630.000000) scale(0.100000,-0.100000)"
fill="#000000" stroke="none">
<path d="M5895 6204 c-16 -2 -73 -9 -125 -15 -607 -69 -1156 -417 -1482 -941
-282 -454 -371 -1029 -239 -1549 160 -631 619 -1152 1218 -1383 115 -45 169
-47 207 -10 l26 27 0 210 0 209 -22 -6 c-13 -4 -84 -10 -158 -13 -104 -4 -151
-1 -203 11 -139 33 -227 100 -280 214 -75 164 -151 267 -241 327 -29 19 -59
46 -66 61 -13 23 -13 27 5 40 12 9 44 14 85 14 117 0 216 -69 315 -219 124
-189 309 -246 532 -165 37 13 43 20 49 52 11 59 43 133 80 184 39 55 52 46
-106 73 -393 67 -638 277 -725 619 -84 330 -43 622 115 831 l49 65 -16 42
c-13 33 -17 77 -17 188 0 128 3 154 25 220 l25 75 58 3 c95 5 234 -44 403
-144 l96 -56 106 21 c158 32 241 40 391 41 152 0 255 -10 410 -42 l105 -21 55
35 c138 88 280 150 388 167 96 15 106 10 132 -72 32 -102 39 -289 15 -391
l-18 -75 37 -43 c46 -53 120 -202 142 -283 35 -134 28 -389 -17 -564 -42 -166
-145 -330 -267 -426 -115 -91 -283 -159 -462 -190 -159 -27 -146 -18 -106 -71
43 -56 73 -134 86 -222 5 -37 10 -210 10 -385 l0 -318 25 -24 c49 -50 155 -25
378 89 519 263 899 740 1041 1305 79 311 79 671 0 982 -189 753 -793 1328
-1559 1484 -157 32 -397 50 -500 39z"/>
<path d="M3277 2050 c-264 -48 -436 -196 -521 -450 -45 -134 -59 -247 -59
-455 0 -158 3 -207 22 -293 38 -180 98 -298 201 -399 185 -181 566 -238 887
-135 51 16 113 42 138 56 l45 27 0 444 0 445 -299 0 c-263 0 -300 -2 -305 -16
-8 -20 -8 -268 0 -288 5 -13 26 -16 125 -16 l119 0 0 -169 c0 -195 12 -176
-115 -186 -309 -25 -448 144 -448 545 1 293 67 441 232 519 54 25 62 26 236
26 155 -1 189 -4 242 -22 33 -11 66 -17 72 -14 5 4 25 71 44 149 31 131 33
143 17 157 -21 19 -87 42 -175 62 -81 18 -385 27 -458 13z"/>
<path d="M5625 1991 c-9 -15 -6 -1674 3 -1683 5 -5 85 -7 178 -6 l169 3 3 363
2 362 245 0 245 0 2 -362 3 -363 175 0 175 0 3 839 c2 665 0 841 -10 848 -17
10 -319 10 -335 0 -10 -6 -13 -85 -15 -317 l-3 -310 -242 -3 -243 -2 0 308 c0
226 -3 311 -12 320 -15 15 -334 17 -343 3z"/>
<path d="M8222 1992 c-10 -7 -12 -183 -10 -848 l3 -839 130 0 129 0 9 42 8 41
47 -32 c69 -46 171 -77 279 -83 252 -16 398 84 457 313 40 154 45 422 12 569
-23 100 -81 201 -144 252 -128 105 -333 111 -554 18 -17 -7 -18 12 -20 281
l-3 289 -165 2 c-91 2 -171 -1 -178 -5z m624 -818 c86 -41 124 -216 93 -429
-20 -141 -62 -178 -194 -173 -55 3 -95 10 -128 25 l-47 22 2 263 3 263 55 22
c68 27 166 30 216 7z"/>
<path d="M4285 1945 c-90 -31 -148 -143 -125 -237 41 -162 237 -210 347 -85
68 78 68 186 0 264 -58 66 -138 87 -222 58z"/>
<path d="M4845 1778 c-3 -7 -6 -85 -7 -173 l-3 -160 -80 -18 c-44 -10 -85 -23
-92 -29 -17 -14 -18 -219 -1 -236 7 -7 44 -12 94 -12 l82 0 4 -302 c3 -285 5
-306 26 -359 27 -68 79 -131 137 -164 52 -31 158 -55 245 -55 58 0 196 23 207
34 3 3 6 179 3 254 0 8 -23 12 -81 12 -54 0 -92 5 -115 16 -61 29 -64 45 -64
319 l0 245 118 0 c64 0 123 4 130 8 9 7 12 44 10 153 l-3 144 -127 3 -128 3
-2 162 -3 162 -173 3 c-132 2 -174 0 -177 -10z"/>
<path d="M4182 1448 c-17 -17 -17 -1119 0 -1136 8 -8 61 -12 175 -12 150 0
163 1 173 19 15 30 14 1113 -2 1129 -8 8 -61 12 -173 12 -112 0 -165 -4 -173
-12z"/>
<path d="M6994 1447 c-3 -8 -4 -218 -2 -468 l3 -454 28 -60 c48 -103 112 -152
232 -180 150 -35 319 -13 464 59 71 36 71 36 71 13 0 -52 15 -58 140 -55 l115
3 3 564 c1 408 -1 568 -9 577 -9 11 -48 14 -168 14 -86 0 -162 -4 -168 -8 -10
-6 -13 -105 -15 -418 l-3 -409 -50 -25 c-59 -29 -168 -39 -216 -20 -63 26 -64
33 -67 470 -2 294 -6 396 -15 402 -7 4 -85 8 -175 8 -127 0 -164 -3 -168 -13z"/>
</g>
</svg>
