<?xml version="1.0" standalone="no"?>
<!DOCTYPE svg PUBLIC "-//W3C//DTD SVG 20010904//EN"
 "http://www.w3.org/TR/2001/REC-SVG-20010904/DTD/svg10.dtd">
<svg version="1.0" xmlns="http://www.w3.org/2000/svg"
 width="140" height="70" viewBox="40 0 640 360"
 preserveAspectRatio="xMidYMid meet">

<g transform="translate(0.000000,360.000000) scale(0.100000,-0.100000)"
fill="#DC143C" stroke="none">
<path d="M0 1800 l0 -1800 3200 0 3200 0 0 1800 0 1800 -3200 0 -3200 0 0
-1800z m2596 823 c59 -20 156 -113 174 -168 24 -72 -10 -140 -66 -133 -20 2
-38 16 -61 48 -65 90 -84 109 -117 115 -48 10 -98 -16 -171 -86 -175 -168
-337 -518 -338 -732 -1 -85 19 -129 62 -135 40 -6 115 41 201 127 103 104 150
173 180 266 49 150 61 175 90 190 39 20 52 19 79 -7 22 -19 23 -27 18 -88 -3
-41 -21 -108 -46 -176 -36 -97 -71 -208 -168 -533 -16 -57 -34 -93 -53 -113
-31 -31 -47 -34 -74 -15 -33 24 -30 83 9 217 21 69 40 134 43 145 3 13 -15 1
-54 -36 -112 -104 -194 -149 -276 -149 -56 0 -91 16 -129 57 -47 50 -62 92
-67 183 -13 255 145 638 354 859 145 154 280 208 410 164z m1208 -104 c16 -12
26 -30 26 -45 0 -14 -31 -98 -69 -187 -127 -297 -281 -693 -281 -720 0 -20 5
-27 18 -27 30 0 134 73 215 150 69 65 77 78 103 152 35 99 75 158 107 158 36
0 56 -21 59 -63 l3 -38 50 42 c73 61 146 93 201 86 56 -6 90 -29 111 -73 15
-30 15 -41 5 -80 -16 -58 -78 -155 -165 -257 -37 -44 -67 -83 -67 -88 0 -19
38 -8 81 22 24 18 105 85 179 149 74 64 142 119 150 122 32 11 50 -11 50 -60
0 -45 -2 -49 -72 -115 -125 -117 -247 -216 -301 -243 -67 -34 -160 -43 -205
-20 -82 42 -69 121 44 261 143 177 169 225 124 225 -34 0 -100 -39 -146 -86
-99 -103 -193 -285 -318 -619 -61 -164 -90 -205 -146 -205 -35 0 -70 31 -70
60 0 36 37 133 119 308 l79 171 -52 -39 c-137 -103 -247 -118 -294 -41 l-18
30 -37 -25 c-45 -30 -110 -54 -146 -54 -49 1 -81 43 -81 109 l0 40 -47 -47
c-69 -69 -132 -97 -215 -97 -63 0 -70 2 -100 33 -31 30 -33 37 -32 95 1 72 33
176 107 350 55 128 90 177 130 177 30 0 77 -35 77 -58 0 -9 -29 -78 -65 -152
-64 -133 -95 -231 -82 -263 17 -45 121 9 185 95 46 61 111 188 137 266 32 100
90 138 135 90 30 -32 25 -68 -25 -184 -75 -176 -101 -283 -74 -300 18 -11 143
58 147 81 4 19 316 819 343 879 13 28 52 55 80 56 9 0 28 -9 43 -21z"/>
</g>
</svg>
