<?xml version="1.0" standalone="no"?>
<!DOCTYPE svg PUBLIC "-//W3C//DTD SVG 20010904//EN"
 "http://www.w3.org/TR/2001/REC-SVG-20010904/DTD/svg10.dtd">
<svg version="1.0" xmlns="http://www.w3.org/2000/svg"
 width="225.000000pt" height="225.000000pt" viewBox="0 0 225.000000 225.000000"
 preserveAspectRatio="xMidYMid meet">

<g transform="translate(0.000000,225.000000) scale(0.100000,-0.100000)"
fill="#000000" stroke="none">
<path d="M840 1901 c-397 -101 -761 -401 -764 -629 -2 -115 87 -233 267 -357
48 -33 87 -62 87 -65 0 -3 -28 -21 -62 -40 -90 -51 -191 -153 -211 -214 -32
-96 -18 -174 42 -231 31 -29 35 -30 129 -30 86 0 103 3 148 27 97 51 160 122
192 218 l17 50 23 -43 c25 -48 66 -77 107 -77 34 0 82 25 95 50 l11 21 26 -21
c38 -30 86 -26 127 11 19 16 38 39 41 50 8 25 25 25 25 0 0 -74 176 -65 266
13 l38 33 33 -19 c24 -15 41 -18 65 -13 82 18 175 88 197 148 6 16 11 48 11
73 l0 44 78 0 c100 0 148 -14 189 -55 45 -45 44 -81 -2 -122 -41 -36 -45 -66
-11 -88 32 -22 69 -11 116 34 49 47 66 104 50 172 -31 128 -152 209 -313 209
-41 0 -95 -6 -121 -14 l-47 -14 -10 26 c-10 26 -7 100 7 169 9 48 -21 73 -88
73 -77 0 -99 -15 -123 -85 -26 -75 -74 -169 -82 -161 -3 3 2 35 12 71 l18 66
-24 25 c-22 24 -30 26 -87 22 -75 -5 -86 -14 -117 -99 -44 -123 -56 -145 -69
-128 -6 9 -21 21 -32 27 -13 7 -24 26 -28 46 -7 35 -46 76 -72 76 -35 0 -8 17
59 37 139 42 275 159 339 291 29 59 32 77 33 152 0 75 -3 90 -28 133 -33 56
-87 98 -166 128 -81 32 -284 37 -391 10z m218 -28 c-15 -2 -42 -2 -60 0 -18 2
-6 4 27 4 33 0 48 -2 33 -4z m-131 -9 c-3 -3 -12 -4 -19 -1 -8 3 -5 6 6 6 11
1 17 -2 13 -5z m220 0 c-3 -3 -12 -4 -19 -1 -8 3 -5 6 6 6 11 1 17 -2 13 -5z
m-144 -101 c-7 -2 -19 -2 -25 0 -7 3 -2 5 12 5 14 0 19 -2 13 -5z m124 1 c-3
-3 -12 -4 -19 -1 -8 3 -5 6 6 6 11 1 17 -2 13 -5z m-567 -28 c0 -2 -7 -7 -16
-10 -8 -3 -12 -2 -9 4 6 10 25 14 25 6z m695 -26 c10 -11 16 -20 13 -20 -3 0
-13 9 -23 20 -10 11 -16 20 -13 20 3 0 13 -9 23 -20z m-112 -1 c69 -17 92 -40
91 -92 -3 -151 -244 -319 -459 -319 -63 0 -111 16 -157 53 -26 21 -28 21 -52
5 -55 -35 -17 -120 75 -171 47 -26 67 -30 158 -35 l104 -5 -51 -33 c-28 -18
-61 -45 -74 -60 -13 -16 -60 -48 -104 -72 l-81 -44 -79 64 c-104 84 -172 149
-190 182 -21 41 -17 102 10 156 52 102 237 239 430 316 147 60 283 80 379 55z
m234 -31 c-3 -8 -6 -5 -6 6 -1 11 2 17 5 13 3 -3 4 -12 1 -19z m-90 -80 c-2
-13 -4 -3 -4 22 0 25 2 35 4 23 2 -13 2 -33 0 -45z m-937 8 c0 -2 -8 -10 -17
-17 -16 -13 -17 -12 -4 4 13 16 21 21 21 13z m1027 -38 c-3 -7 -5 -2 -5 12 0
14 2 19 5 13 2 -7 2 -19 0 -25z m-927 -32 c0 -2 -8 -10 -17 -17 -16 -13 -17
-12 -4 4 13 16 21 21 21 13z m-220 -50 c0 -2 -8 -10 -17 -17 -16 -13 -17 -12
-4 4 13 16 21 21 21 13z m160 1 c0 -2 -12 -14 -27 -28 l-28 -24 24 28 c23 25
31 32 31 24z m840 -21 c0 -2 -8 -10 -17 -17 -16 -13 -17 -12 -4 4 13 16 21 21
21 13z m-80 -80 c0 -2 -8 -10 -17 -17 -16 -13 -17 -12 -4 4 13 16 21 21 21 13z
m130 1 c0 -2 -15 -16 -32 -33 l-33 -29 29 33 c28 30 36 37 36 29z m-664 -89
c12 -14 13 -18 3 -10 -9 6 -20 8 -24 4 -5 -4 -5 -2 -2 5 4 6 1 14 -5 16 -8 3
-8 6 -2 6 6 1 19 -9 30 -21z m-489 -50 c-2 -13 -4 -3 -4 22 0 25 2 35 4 23 2
-13 2 -33 0 -45z m503 7 c13 -14 21 -25 18 -25 -2 0 -15 11 -28 25 -13 14 -21
25 -18 25 2 0 15 -11 28 -25z m287 9 c-3 -3 -12 -4 -19 -1 -8 3 -5 6 6 6 11 1
17 -2 13 -5z m-40 -10 c-3 -3 -12 -4 -19 -1 -8 3 -5 6 6 6 11 1 17 -2 13 -5z
m-84 -11 c-13 -2 -33 -2 -45 0 -13 2 -3 4 22 4 25 0 35 -2 23 -4z m-66 -39
c-3 -3 -12 -4 -19 -1 -8 3 -5 6 6 6 11 1 17 -2 13 -5z m220 0 c-3 -3 -12 -4
-19 -1 -8 3 -5 6 6 6 11 1 17 -2 13 -5z m-104 -11 c-13 -2 -33 -2 -45 0 -13 2
-3 4 22 4 25 0 35 -2 23 -4z m-689 -19 c3 -8 2 -12 -4 -9 -6 3 -10 10 -10 16
0 14 7 11 14 -7z m1463 -66 c-3 -8 -6 -5 -6 6 -1 11 2 17 5 13 3 -3 4 -12 1
-19z m-1382 -38 c27 -27 47 -50 44 -50 -3 0 -27 23 -54 50 -27 28 -47 50 -44
50 3 0 27 -22 54 -50z m748 33 c-7 -2 -21 -2 -30 0 -10 3 -4 5 12 5 17 0 24
-2 18 -5z m-633 -28 c13 -14 21 -25 18 -25 -2 0 -15 11 -28 25 -13 14 -21 25
-18 25 2 0 15 -11 28 -25z m520 -9 c0 -2 -8 -10 -17 -17 -16 -13 -17 -12 -4 4
13 16 21 21 21 13z m757 -18 c-3 -8 -6 -5 -6 6 -1 11 2 17 5 13 3 -3 4 -12 1
-19z m-280 -20 c-3 -8 -6 -5 -6 6 -1 11 2 17 5 13 3 -3 4 -12 1 -19z m-936 -5
c13 -16 12 -17 -3 -4 -10 7 -18 15 -18 17 0 8 8 3 21 -13z m509 4 c0 -2 -10
-12 -22 -23 l-23 -19 19 23 c18 21 26 27 26 19z m-100 -10 c0 -2 -10 -12 -22
-23 l-23 -19 19 23 c18 21 26 27 26 19z m-499 -24 c13 -16 12 -17 -3 -4 -17
13 -22 21 -14 21 2 0 10 -8 17 -17z m956 -5 c-3 -8 -6 -5 -6 6 -1 11 2 17 5
13 3 -3 4 -12 1 -19z m601 15 c-10 -2 -28 -2 -40 0 -13 2 -5 4 17 4 22 1 32
-1 23 -4z m-91 -9 c-3 -3 -12 -4 -19 -1 -8 3 -5 6 6 6 11 1 17 -2 13 -5z
m-699 -40 c-3 -14 -5 -12 -10 9 -3 19 -2 25 4 19 6 -6 8 -18 6 -28z m-577 -11
c13 -16 12 -17 -3 -4 -10 7 -18 15 -18 17 0 8 8 3 21 -13z m1023 1 c4 -10 -6
-30 -26 -54 -54 -63 -65 -50 -20 24 30 50 37 54 46 30z m324 9 c-10 -2 -28 -2
-40 0 -13 2 -5 4 17 4 22 1 32 -1 23 -4z m-91 -9 c-3 -3 -12 -4 -19 -1 -8 3
-5 6 6 6 11 1 17 -2 13 -5z m160 0 c-3 -3 -12 -4 -19 -1 -8 3 -5 6 6 6 11 1
17 -2 13 -5z m-1037 -75 c-12 -30 -24 -56 -27 -59 -8 -7 6 49 23 88 23 57 27
30 4 -29z m700 38 c0 -2 -12 -14 -27 -28 l-28 -24 24 28 c23 25 31 32 31 24z
m-320 -57 c0 -8 -21 -37 -45 -65 l-45 -50 37 77 c34 72 53 85 53 38z m340 27
c0 -2 -10 -12 -22 -23 l-23 -19 19 23 c18 21 26 27 26 19z m27 -39 c-3 -8 -6
-5 -6 6 -1 11 2 17 5 13 3 -3 4 -12 1 -19z m-910 -30 c-3 -8 -6 -5 -6 6 -1 11
2 17 5 13 3 -3 4 -12 1 -19z m1400 -30 c-2 -13 -4 -5 -4 17 -1 22 1 32 4 23 2
-10 2 -28 0 -40z m-1320 0 c-3 -7 -5 -2 -5 12 0 14 2 19 5 13 2 -7 2 -19 0
-25z m240 10 c-3 -8 -6 -5 -6 6 -1 11 2 17 5 13 3 -3 4 -12 1 -19z m-410 -40
c-3 -8 -6 -5 -6 6 -1 11 2 17 5 13 3 -3 4 -12 1 -19z m400 -30 c-2 -13 -4 -5
-4 17 -1 22 1 32 4 23 2 -10 2 -28 0 -40z m243 48 c0 -2 -8 -10 -17 -17 -16
-13 -17 -12 -4 4 13 16 21 21 21 13z m50 1 c0 -2 -10 -12 -22 -23 l-23 -19 19
23 c18 21 26 27 26 19z m350 0 c0 -2 -10 -12 -22 -23 l-23 -19 19 23 c18 21
26 27 26 19z m-873 -49 c-3 -8 -6 -5 -6 6 -1 11 2 17 5 13 3 -3 4 -12 1 -19z
m-277 1 c0 -61 -59 -148 -122 -180 -57 -29 -73 -20 -53 28 20 46 36 65 105
119 57 46 70 52 70 33z m810 -3 c0 -2 -8 -10 -17 -17 -16 -13 -17 -12 -4 4 13
16 21 21 21 13z m174 -35 c-5 -6 -34 20 -34 30 0 5 8 1 18 -8 10 -10 17 -20
16 -22z m-284 25 c0 -2 -8 -10 -17 -17 -16 -13 -17 -12 -4 4 13 16 21 21 21
13z m-273 -38 c-3 -7 -5 -2 -5 12 0 14 2 19 5 13 2 -7 2 -19 0 -25z m453 29
c0 -2 -10 -12 -22 -23 l-23 -19 19 23 c18 21 26 27 26 19z m-1030 -11 c0 -2
-8 -10 -17 -17 -16 -13 -17 -12 -4 4 13 16 21 21 21 13z m1670 -6 c0 -5 -5
-10 -11 -10 -5 0 -7 5 -4 10 3 6 8 10 11 10 2 0 4 -4 4 -10z m-1413 -32 c-3
-8 -6 -5 -6 6 -1 11 2 17 5 13 3 -3 4 -12 1 -19z m557 -14 c3 -8 2 -12 -4 -9
-6 3 -10 10 -10 16 0 14 7 11 14 -7z m-329 -54 c-10 -11 -22 -20 -28 -20 -5 0
1 9 14 20 31 25 37 25 14 0z m-325 6 c0 -2 -8 -10 -17 -17 -16 -13 -17 -12 -4
4 13 16 21 21 21 13z m254 -25 c-2 -3 -12 3 -22 13 -16 17 -16 18 5 5 12 -7
20 -15 17 -18z m-497 -33 c-3 -8 -6 -5 -6 6 -1 11 2 17 5 13 3 -3 4 -12 1 -19z
m-110 -30 c-3 -8 -6 -5 -6 6 -1 11 2 17 5 13 3 -3 4 -12 1 -19z m403 18 c0 -2
-8 -10 -17 -17 -16 -13 -17 -12 -4 4 13 16 21 21 21 13z m-359 -113 c13 -16
12 -17 -3 -4 -10 7 -18 15 -18 17 0 8 8 3 21 -13z m117 -30 c-10 -2 -28 -2
-40 0 -13 2 -5 4 17 4 22 1 32 -1 23 -4z"/>
</g>
</svg>
